<svg width="88" height="90" viewBox="0 0 88 90" fill="none" xmlns="http://www.w3.org/2000/svg">
<g clip-path="url(#clip0_1122_3152)">
<path d="M87.7529 45.7835C87.7529 42.3086 87.4004 38.9904 86.7904 35.8121L44.7676 35.8121L44.7676 53.718L68.7894 53.7124C67.7822 59.3696 64.6375 64.1874 59.8421 67.3992L59.8421 78.7247L74.4354 78.7247C82.8903 70.93 87.7529 59.4087 87.7529 45.7835Z" fill="#4285F4"/>
<path d="M44.7668 89.5311C56.8477 89.5311 67.0204 85.5638 74.4346 78.726L59.8413 67.4005C55.8628 70.064 50.7485 71.6252 44.7668 71.6252C33.1503 71.6252 23.2965 63.7802 19.7881 53.2157L4.76953 53.2157L4.76953 64.8713C12.1389 79.4926 27.275 89.5311 44.7668 89.5311Z" fill="#34A853"/>
<path d="M19.786 53.2142C18.9019 50.5451 18.4151 47.7026 18.4151 44.7649C18.4151 41.8272 18.9019 38.9902 19.786 36.3155L19.786 24.6655L4.76744 24.6655C1.72344 30.7088 4.07966e-08 37.5354 6.37136e-08 44.7649C8.66306e-08 51.9944 1.72344 58.821 4.76744 64.8642L19.786 53.2142Z" fill="#FABB05"/>
<path d="M44.7668 17.9061C51.3136 17.9061 57.1834 20.1611 61.8165 24.5705L74.72 11.667C66.9589 4.43754 56.8421 0.000243976 44.7668 0.000244014C27.275 0.000244069 12.1389 10.0387 4.76953 24.6656L19.7881 36.3156C23.2965 25.7511 33.1503 17.9061 44.7668 17.9061Z" fill="#E94235"/>
</g>
<defs>
<clipPath id="clip0_1122_3152">
<rect width="87.75" height="89.5294" fill="white"/>
</clipPath>
</defs>
</svg>
