<?xml version="1.0" encoding="UTF-8"?>
<svg width="294px" height="91px" viewBox="0 0 294 91" version="1.1" xmlns="http://www.w3.org/2000/svg" xmlns:xlink="http://www.w3.org/1999/xlink">
    <title>Logo_SVG_Gecentreerd</title>
    <g id="Logo_SVG_Gecentreerd" stroke="none" stroke-width="1" fill="none" fill-rule="evenodd">
        <g id="OPPO_LOGO_2019-(1)" transform="translate(2, 19)" fill="#006B33" fill-rule="nonzero">
            <path d="M73.9882954,35.7081735 L73.9882954,2.41652752 L79.1930924,2.41652752 L84.3978311,2.41652752 L84.3978311,4.61716123 C84.3978311,5.82750895 84.4164551,6.81779461 84.4390367,6.81779461 C84.4617347,6.81779461 85.1187254,6.4188932 85.8991292,5.93134386 C95.105438,0.179868817 108.488412,-1.55203259 120.491783,1.45468282 C131.305867,4.16349492 139.145349,10.593799 141.932256,19.0411294 C143.560838,23.9774171 143.471006,29.4670176 141.683597,34.2410825 C139.460153,40.1797291 134.889299,44.9544441 128.296433,48.2252971 C122.526979,51.0876498 115.939932,52.520942 108.55476,52.520942 C102.432323,52.520942 96.7223504,51.5027677 91.6958492,49.5147272 C89.7013352,48.7258859 87.1448129,47.4309935 85.5939284,46.4240748 L84.3978311,45.6475225 L84.3978311,57.3236654 L84.3978311,68.9998142 L79.1930924,68.9998142 L73.9882954,68.9998142 L73.9882954,35.7081735 Z M113.589816,43.6702442 C119.444911,42.8418805 123.987712,40.9890616 127.393751,38.0401845 C129.972098,35.8079186 131.767713,32.707662 132.447955,29.3138387 C132.726151,27.9258291 132.726937,24.647839 132.450865,23.2638795 C131.649946,19.2698558 129.355236,15.7809196 125.920068,13.3342538 C124.535345,12.3480266 121.722801,10.9430108 119.927505,10.3406835 C114.857703,8.63974553 108.710881,8.13603805 103.08105,8.96017584 C93.3062141,10.3910854 86.699612,15.2263078 84.9270437,22.2466398 C84.1450103,25.3440085 84.2846612,28.6877997 85.3181186,31.6102977 C87.6656156,38.2486548 94.5876617,42.6661729 104.369772,43.7686861 C106.336379,43.9903364 111.736204,43.932694 113.591271,43.6702442 L113.589816,43.6702442 Z M148.09971,35.7081735 L148.09971,2.41652752 L153.304449,2.41652752 L158.509246,2.41652752 L158.509246,4.61716123 C158.509246,5.82750895 158.531944,6.81779461 158.559414,6.81779461 C158.587059,6.81779461 159.159834,6.46003899 159.832335,6.02278509 C161.388371,5.01104056 164.460021,3.49782981 166.429538,2.77275124 C174.931569,-0.357298229 185.312441,-0.862083676 194.396995,1.41278791 C209.205694,5.12103183 217.926412,15.2804846 217.103114,27.8648838 C216.474671,37.4709444 210.066123,45.3615455 199.525085,49.5080284 C196.086541,50.8606271 192.562735,51.7135948 188.152659,52.2608112 C185.825125,52.549618 179.551834,52.5491826 177.121955,52.2602307 C170.244752,51.4419036 164.206793,49.4050268 159.499257,46.3153322 L158.509246,45.6655408 L158.509246,57.3327704 L158.509246,69 L153.304449,69 L148.09971,69 L148.09971,35.7081474 L148.09971,35.7081735 Z M187.952946,43.6213208 C196.062272,42.4134346 201.776872,39.1550563 204.779614,34.027025 C206.523664,31.0485517 207.176755,27.0860443 206.52992,23.4071931 C205.185442,15.7602688 198.447541,10.4688759 188.131707,8.95877193 C181.322976,7.96205766 173.635455,8.95485074 168.409619,11.5057689 C163.075036,14.1097467 159.864549,17.9978113 158.768614,23.1814852 C158.480931,24.5421788 158.481775,28.0404695 158.771524,29.3742645 C159.547679,32.9646437 161.302002,35.9352484 163.964681,38.1678974 C167.630961,41.2420408 172.402517,43.0725225 178.594269,43.7801391 C180.64224,44.0141886 185.917721,43.9246746 187.954343,43.6213208 L187.952946,43.6213208 Z M30.992376,52.4521571 C25.4706504,51.9657409 20.7576435,50.8807584 16.7499042,49.173395 C7.63432915,45.2900179 1.87686515,38.735756 0.314369746,30.4632379 C0.015949251,28.8832119 -0.0978899493,25.3236798 0.0956250513,23.6227221 C1.22394845,13.7048077 8.54905856,5.84906418 20.1302475,2.13680561 C26.2932201,0.161317322 33.8794452,-0.484005202 40.6885833,0.388005353 C53.1638407,1.9856462 62.6005051,7.75544868 66.7482154,16.3214924 C70.1254159,23.2961866 69.6968602,31.7683818 65.6374102,38.2815278 C63.8085916,41.2157418 60.797731,44.2436435 57.6951181,46.2687887 C52.8681556,49.4194548 47.1028636,51.3795274 40.1007342,52.2505046 C38.6981724,52.4249671 32.2933788,52.5667656 30.992376,52.4521571 L30.992376,52.4521571 Z M38.3764428,43.7792162 C43.8065319,43.2044382 48.3744463,41.6583516 51.8114764,39.2319157 C54.6211978,37.2483276 56.8446124,34.3248961 57.8422477,31.3023319 C58.4262265,29.5331322 58.5420736,28.702454 58.5420736,26.2849431 C58.5420736,23.8745432 58.4279143,23.0507711 57.8484751,21.2803234 C55.9439965,15.4612454 50.3734708,11.1327827 42.5899773,9.42398093 C35.7657363,7.92577345 27.8073222,8.44650661 21.9107601,10.7770516 C17.6568057,12.4583801 14.2990149,15.1800575 12.3299343,18.5428654 C10.2360729,22.1187121 9.76104446,26.9892394 11.0967927,31.1865364 C12.5359623,35.7089223 16.3272558,39.4938024 21.5445948,41.616661 C24.3863553,42.7729273 27.9049236,43.5785621 31.3883979,43.8705616 C32.7249609,43.9825985 36.9806031,43.9269704 38.3764428,43.7792162 Z M253.100251,52.4560435 C252.882437,52.4312857 252.118708,52.3557295 251.403052,52.2880825 C245.656878,51.7449207 239.616009,49.935055 235.18728,47.4297802 C229.200246,44.0429576 225.030071,39.2292135 223.126465,33.5075355 C221.83815,29.635295 221.618183,25.283632 222.508381,21.2801057 C223.854489,15.2263629 227.5492,10.0858221 233.28673,6.28388004 C240.853109,1.27010361 251.978242,-0.956701034 262.717772,0.392971419 C271.640239,1.51429101 278.991249,4.7691339 284.106272,9.86325232 C288.001714,13.7427802 290.241309,18.2886556 290.888667,23.6299376 C291.056862,25.0180243 291.030701,27.8251553 290.835763,29.2979798 C289.43195,39.9044854 281.002204,48.0108652 268.092251,51.1689905 C264.17801,52.1265213 261.720981,52.4163788 257.116982,52.4637524 C255.125582,52.4842436 253.318065,52.4807897 253.100251,52.4560319 L253.100251,52.4560435 Z M259.945648,43.8320521 C266.818806,43.2013994 272.420818,40.9421902 276.017112,37.3506616 C278.452084,34.9189172 279.865442,32.2419721 280.422445,29.006844 C280.651986,27.6736452 280.648726,24.8946476 280.416043,23.5117185 C279.163171,16.0674045 272.582439,10.6714232 262.830942,9.09251324 C260.489701,8.71343024 258.932648,8.58992726 256.494708,8.58992726 C245.561867,8.58992726 237.078984,12.7014474 233.816438,19.5817399 C232.843974,21.632531 232.395252,23.7489171 232.395252,26.2849431 C232.395252,29.6312751 233.177198,32.2852213 234.942317,34.929723 C238.18266,39.7844349 244.327881,42.8859656 252.461331,43.7716611 C254.138888,43.9543375 258.2513,43.987521 259.945677,43.8320521 L259.945648,43.8320521 Z" id="path1460"></path>
        </g>
    </g>
</svg>